<mxfile host="app.diagrams.net" agent="Mozilla/5.0 (Macintosh; Intel Mac OS X 10_15_7) AppleWebKit/605.1.15 (KHTML, like Gecko) Version/18.0.1 Safari/605.1.15" version="24.8.4" pages="2">
  <diagram name="SC" id="2jrvlOFDyI9eP0RItJlz">
    <mxGraphModel dx="954" dy="622" grid="1" gridSize="10" guides="1" tooltips="1" connect="1" arrows="1" fold="1" page="1" pageScale="1" pageWidth="827" pageHeight="1169" math="0" shadow="0">
      <root>
        <mxCell id="0" />
        <mxCell id="1" parent="0" />
        <mxCell id="FDANH4CxxODxMzxdif0w-1" value="PLC" style="rounded=0;whiteSpace=wrap;html=1;" vertex="1" parent="1">
          <mxGeometry x="60" y="50" width="120" height="60" as="geometry" />
        </mxCell>
        <mxCell id="FDANH4CxxODxMzxdif0w-2" value="R1" style="rounded=0;whiteSpace=wrap;html=1;" vertex="1" parent="1">
          <mxGeometry x="240" y="50" width="120" height="60" as="geometry" />
        </mxCell>
        <mxCell id="FDANH4CxxODxMzxdif0w-3" value="R2" style="rounded=0;whiteSpace=wrap;html=1;" vertex="1" parent="1">
          <mxGeometry x="400" y="50" width="120" height="60" as="geometry" />
        </mxCell>
        <mxCell id="FDANH4CxxODxMzxdif0w-4" value="R3" style="rounded=0;whiteSpace=wrap;html=1;" vertex="1" parent="1">
          <mxGeometry x="550" y="50" width="120" height="60" as="geometry" />
        </mxCell>
        <mxCell id="FDANH4CxxODxMzxdif0w-5" value="" style="endArrow=none;html=1;rounded=0;entryX=0.5;entryY=1;entryDx=0;entryDy=0;" edge="1" parent="1" target="FDANH4CxxODxMzxdif0w-1">
          <mxGeometry width="50" height="50" relative="1" as="geometry">
            <mxPoint x="120" y="600" as="sourcePoint" />
            <mxPoint x="440" y="300" as="targetPoint" />
          </mxGeometry>
        </mxCell>
        <mxCell id="FDANH4CxxODxMzxdif0w-6" value="" style="endArrow=none;html=1;rounded=0;entryX=0.5;entryY=1;entryDx=0;entryDy=0;" edge="1" parent="1">
          <mxGeometry width="50" height="50" relative="1" as="geometry">
            <mxPoint x="299.5" y="600" as="sourcePoint" />
            <mxPoint x="299.5" y="110" as="targetPoint" />
          </mxGeometry>
        </mxCell>
        <mxCell id="FDANH4CxxODxMzxdif0w-7" value="" style="endArrow=none;html=1;rounded=0;entryX=0.5;entryY=1;entryDx=0;entryDy=0;" edge="1" parent="1">
          <mxGeometry width="50" height="50" relative="1" as="geometry">
            <mxPoint x="459.5" y="600" as="sourcePoint" />
            <mxPoint x="459.5" y="110" as="targetPoint" />
          </mxGeometry>
        </mxCell>
        <mxCell id="FDANH4CxxODxMzxdif0w-8" value="" style="endArrow=none;html=1;rounded=0;entryX=0.5;entryY=1;entryDx=0;entryDy=0;" edge="1" parent="1">
          <mxGeometry width="50" height="50" relative="1" as="geometry">
            <mxPoint x="609.5" y="600" as="sourcePoint" />
            <mxPoint x="609.5" y="110" as="targetPoint" />
          </mxGeometry>
        </mxCell>
      </root>
    </mxGraphModel>
  </diagram>
  <diagram id="uQcBuAGHsDxPfOJEa0wS" name="DIAGRAM">
    <mxGraphModel dx="954" dy="622" grid="1" gridSize="10" guides="1" tooltips="1" connect="1" arrows="1" fold="1" page="1" pageScale="1" pageWidth="827" pageHeight="1169" math="0" shadow="0">
      <root>
        <mxCell id="0" />
        <mxCell id="1" parent="0" />
        <mxCell id="OwBJgH0goVnJYkpg6lLB-1" value="" style="ellipse;whiteSpace=wrap;html=1;" vertex="1" parent="1">
          <mxGeometry x="230" y="80" width="520" height="420" as="geometry" />
        </mxCell>
        <mxCell id="OwBJgH0goVnJYkpg6lLB-2" value="" style="ellipse;whiteSpace=wrap;html=1;" vertex="1" parent="1">
          <mxGeometry x="300" y="130" width="390" height="320" as="geometry" />
        </mxCell>
        <mxCell id="OwBJgH0goVnJYkpg6lLB-3" value="" style="endArrow=none;html=1;rounded=0;exitX=0.092;exitY=0.8;exitDx=0;exitDy=0;exitPerimeter=0;entryX=0.112;entryY=0.826;entryDx=0;entryDy=0;entryPerimeter=0;" edge="1" parent="1" source="OwBJgH0goVnJYkpg6lLB-2" target="OwBJgH0goVnJYkpg6lLB-1">
          <mxGeometry width="50" height="50" relative="1" as="geometry">
            <mxPoint x="390" y="350" as="sourcePoint" />
            <mxPoint x="440" y="300" as="targetPoint" />
            <Array as="points">
              <mxPoint x="300" y="386" />
            </Array>
          </mxGeometry>
        </mxCell>
        <mxCell id="OwBJgH0goVnJYkpg6lLB-5" value="" style="endArrow=none;html=1;rounded=0;exitX=0;exitY=0.464;exitDx=0;exitDy=0;exitPerimeter=0;" edge="1" parent="1" source="OwBJgH0goVnJYkpg6lLB-1">
          <mxGeometry width="50" height="50" relative="1" as="geometry">
            <mxPoint x="390" y="350" as="sourcePoint" />
            <mxPoint x="300" y="280" as="targetPoint" />
            <Array as="points">
              <mxPoint x="270" y="240" />
            </Array>
          </mxGeometry>
        </mxCell>
        <mxCell id="OwBJgH0goVnJYkpg6lLB-7" value="" style="endArrow=none;html=1;rounded=0;exitX=0.123;exitY=0.169;exitDx=0;exitDy=0;exitPerimeter=0;" edge="1" parent="1" source="OwBJgH0goVnJYkpg6lLB-2">
          <mxGeometry width="50" height="50" relative="1" as="geometry">
            <mxPoint x="390" y="350" as="sourcePoint" />
            <mxPoint x="300" y="150" as="targetPoint" />
            <Array as="points">
              <mxPoint x="348" y="140" />
            </Array>
          </mxGeometry>
        </mxCell>
        <mxCell id="OwBJgH0goVnJYkpg6lLB-8" value="готов к запуску" style="text;html=1;align=center;verticalAlign=middle;whiteSpace=wrap;rounded=0;rotation=-115;" vertex="1" parent="1">
          <mxGeometry x="240" y="330" width="60" height="30" as="geometry" />
        </mxCell>
        <mxCell id="OwBJgH0goVnJYkpg6lLB-9" value="Запущен" style="text;html=1;align=center;verticalAlign=middle;whiteSpace=wrap;rounded=0;rotation=-60;" vertex="1" parent="1">
          <mxGeometry x="260" y="190" width="60" height="30" as="geometry" />
        </mxCell>
        <mxCell id="OwBJgH0goVnJYkpg6lLB-11" value="Ошибка" style="rounded=1;whiteSpace=wrap;html=1;" vertex="1" parent="1">
          <mxGeometry x="433" y="270" width="124" height="40" as="geometry" />
        </mxCell>
        <mxCell id="OwBJgH0goVnJYkpg6lLB-12" value="" style="endArrow=classic;html=1;rounded=0;entryX=0.015;entryY=0.659;entryDx=0;entryDy=0;entryPerimeter=0;exitX=0;exitY=0.75;exitDx=0;exitDy=0;" edge="1" parent="1" source="OwBJgH0goVnJYkpg6lLB-11" target="OwBJgH0goVnJYkpg6lLB-2">
          <mxGeometry width="50" height="50" relative="1" as="geometry">
            <mxPoint x="390" y="350" as="sourcePoint" />
            <mxPoint x="440" y="300" as="targetPoint" />
          </mxGeometry>
        </mxCell>
        <mxCell id="OwBJgH0goVnJYkpg6lLB-16" value="" style="endArrow=none;html=1;rounded=0;" edge="1" parent="1">
          <mxGeometry width="50" height="50" relative="1" as="geometry">
            <mxPoint x="441" y="136" as="sourcePoint" />
            <mxPoint x="423" y="87" as="targetPoint" />
            <Array as="points">
              <mxPoint x="470" y="100" />
            </Array>
          </mxGeometry>
        </mxCell>
        <mxCell id="OwBJgH0goVnJYkpg6lLB-17" value="Дойка" style="text;html=1;align=center;verticalAlign=middle;resizable=0;points=[];autosize=1;strokeColor=none;fillColor=none;rotation=-25;" vertex="1" parent="1">
          <mxGeometry x="360" y="110" width="60" height="30" as="geometry" />
        </mxCell>
        <mxCell id="OwBJgH0goVnJYkpg6lLB-18" value="" style="endArrow=none;html=1;rounded=0;exitX=0.669;exitY=0.028;exitDx=0;exitDy=0;exitPerimeter=0;" edge="1" parent="1" source="OwBJgH0goVnJYkpg6lLB-2">
          <mxGeometry width="50" height="50" relative="1" as="geometry">
            <mxPoint x="452" y="148" as="sourcePoint" />
            <mxPoint x="587" y="95" as="targetPoint" />
            <Array as="points">
              <mxPoint x="600" y="130" />
            </Array>
          </mxGeometry>
        </mxCell>
        <mxCell id="OwBJgH0goVnJYkpg6lLB-19" value="Запрос паузы" style="text;html=1;align=center;verticalAlign=middle;resizable=0;points=[];autosize=1;strokeColor=none;fillColor=none;rotation=5.9;" vertex="1" parent="1">
          <mxGeometry x="470" y="90" width="100" height="30" as="geometry" />
        </mxCell>
        <mxCell id="OwBJgH0goVnJYkpg6lLB-20" value="" style="endArrow=classic;html=1;rounded=0;exitX=0.231;exitY=0.091;exitDx=0;exitDy=0;exitPerimeter=0;" edge="1" parent="1" source="OwBJgH0goVnJYkpg6lLB-2">
          <mxGeometry width="50" height="50" relative="1" as="geometry">
            <mxPoint x="480" y="280" as="sourcePoint" />
            <mxPoint x="450" y="270" as="targetPoint" />
          </mxGeometry>
        </mxCell>
        <mxCell id="OwBJgH0goVnJYkpg6lLB-21" value="" style="endArrow=none;html=1;rounded=0;exitX=0.921;exitY=0.234;exitDx=0;exitDy=0;exitPerimeter=0;entryX=0.913;entryY=0.219;entryDx=0;entryDy=0;entryPerimeter=0;" edge="1" parent="1" source="OwBJgH0goVnJYkpg6lLB-2" target="OwBJgH0goVnJYkpg6lLB-1">
          <mxGeometry width="50" height="50" relative="1" as="geometry">
            <mxPoint x="571" y="149" as="sourcePoint" />
            <mxPoint x="597" y="105" as="targetPoint" />
            <Array as="points">
              <mxPoint x="705" y="220" />
            </Array>
          </mxGeometry>
        </mxCell>
        <mxCell id="OwBJgH0goVnJYkpg6lLB-22" value="Пауза" style="text;html=1;align=center;verticalAlign=middle;resizable=0;points=[];autosize=1;strokeColor=none;fillColor=none;" vertex="1" parent="1">
          <mxGeometry x="610" y="130" width="60" height="30" as="geometry" />
        </mxCell>
        <mxCell id="OwBJgH0goVnJYkpg6lLB-23" value="Запрос мойки" style="text;html=1;align=center;verticalAlign=middle;resizable=0;points=[];autosize=1;strokeColor=none;fillColor=none;rotation=81;" vertex="1" parent="1">
          <mxGeometry x="660" y="260" width="100" height="30" as="geometry" />
        </mxCell>
        <mxCell id="OwBJgH0goVnJYkpg6lLB-24" value="Мойка" style="text;html=1;align=center;verticalAlign=middle;resizable=0;points=[];autosize=1;strokeColor=none;fillColor=none;rotation=-225;" vertex="1" parent="1">
          <mxGeometry x="640" y="390" width="60" height="30" as="geometry" />
        </mxCell>
        <mxCell id="OwBJgH0goVnJYkpg6lLB-25" value="Мойка завершена" style="text;html=1;align=center;verticalAlign=middle;resizable=0;points=[];autosize=1;strokeColor=none;fillColor=none;rotation=-170;" vertex="1" parent="1">
          <mxGeometry x="380" y="450" width="130" height="30" as="geometry" />
        </mxCell>
        <mxCell id="OwBJgH0goVnJYkpg6lLB-26" value="" style="endArrow=none;html=1;rounded=0;exitX=0.99;exitY=0.638;exitDx=0;exitDy=0;exitPerimeter=0;entryX=0.985;entryY=0.633;entryDx=0;entryDy=0;entryPerimeter=0;" edge="1" parent="1" source="OwBJgH0goVnJYkpg6lLB-2" target="OwBJgH0goVnJYkpg6lLB-1">
          <mxGeometry width="50" height="50" relative="1" as="geometry">
            <mxPoint x="669" y="215" as="sourcePoint" />
            <mxPoint x="715" y="182" as="targetPoint" />
            <Array as="points">
              <mxPoint x="700" y="370" />
            </Array>
          </mxGeometry>
        </mxCell>
        <mxCell id="OwBJgH0goVnJYkpg6lLB-27" value="" style="endArrow=none;html=1;rounded=0;exitX=0.769;exitY=0.925;exitDx=0;exitDy=0;exitPerimeter=0;entryX=0.777;entryY=0.917;entryDx=0;entryDy=0;entryPerimeter=0;" edge="1" parent="1" source="OwBJgH0goVnJYkpg6lLB-2" target="OwBJgH0goVnJYkpg6lLB-1">
          <mxGeometry width="50" height="50" relative="1" as="geometry">
            <mxPoint x="696" y="344" as="sourcePoint" />
            <mxPoint x="752" y="356" as="targetPoint" />
            <Array as="points">
              <mxPoint x="590" y="460" />
            </Array>
          </mxGeometry>
        </mxCell>
        <mxCell id="OwBJgH0goVnJYkpg6lLB-28" value="" style="endArrow=classic;html=1;rounded=0;exitX=0.877;exitY=0.822;exitDx=0;exitDy=0;exitPerimeter=0;" edge="1" parent="1" source="OwBJgH0goVnJYkpg6lLB-2">
          <mxGeometry width="50" height="50" relative="1" as="geometry">
            <mxPoint x="400" y="169" as="sourcePoint" />
            <mxPoint x="510" y="310" as="targetPoint" />
          </mxGeometry>
        </mxCell>
      </root>
    </mxGraphModel>
  </diagram>
</mxfile>
